:FULLY-SPECIFIED
:FORCE-ALL-JOINTS-BE-3DOF
:DEGREES
1733
root -5.52776 15.1457 24.9965 929.452 -13.8464 269.103
lfemur -36.5959 5.15485 -14.5858
ltibia 64.565 0 0
lfoot -16.036 15.1823 0
ltoes -35.3299 0 0
rfemur -39.958 -13.2098 20.929
rtibia 50.5074 0 0
rfoot -12.8609 -20.4883 0
rtoes -4.85367 0 0
lowerback 18.1876 2.01924 -1.38089
upperback 0.461011 2.60977 3.31892
thorax -8.98778 1.29123 3.90957
lowerneck 2.35833 -10.6851 -11.4878
upperneck -0.837778 -14.7504 14.2545
head 2.07916 -7.61812 5.88593
lclavicle 2.19985e-14 -2.46782e-14 0
lhumerus -28.4439 -43.5802 97.1904
lradius 102.934 0 0
lwrist 2.81807 0 0
lhand 27.0381 32.2724 0
lfingers 7.12502 0 0
lthumb 46.8683 40.2525 0
rclavicle 2.19985e-14 -2.46782e-14 0
rhumerus 55.3582 18.3007 -24.1359
rradius 81.8544 0 0
rwrist -27.0209 0 0
rhand -0.739522 -42.2405 0
rfingers 7.12502 0 0
rthumb 24.8783 -70.3153 0
1734
root -5.40361 15.1501 25.0671 932.112 -11.4482 270.242
lfemur -36.9507 5.27897 -14.4419
ltibia 64.5655 0 0
lfoot -15.6288 14.8579 0
ltoes -35.3251 0 0
rfemur -39.5264 -13.3519 21.0556
rtibia 50.7098 0 0
rfoot -13.0095 -20.568 0
rtoes -5.11529 0 0
lowerback 18.1622 2.12989 -1.19214
upperback 0.428549 2.79399 3.26694
thorax -9.00679 1.37156 3.69876
lowerneck 2.17931 -10.4943 -11.3503
upperneck -0.641019 -14.4828 14.0467
head 2.11435 -7.47607 5.81159
lclavicle 2.18675e-14 -2.37134e-14 0
lhumerus -28.811 -43.3755 97.4107
lradius 103.27 0 0
lwrist 1.80779 0 0
lhand 28.2372 32.0088 0
lfingers 7.12502 0 0
lthumb 47.8675 39.2661 0
rclavicle 2.18675e-14 -2.37134e-14 0
rhumerus 55.3501 18.168 -24.3033
rradius 81.0429 0 0
rwrist -26.9476 0 0
rhand -1.35599 -42.5992 0
rfingers 7.12502 0 0
rthumb 24.293 -70.7955 0
1735
root -5.27905 15.1546 25.1379 934.776 -9.04522 271.388
lfemur -37.3058 5.40294 -14.2971
ltibia 64.5642 0 0
lfoot -15.2192 14.533 0
ltoes -35.3184 0 0
rfemur -39.093 -13.494 21.1821
rtibia 50.9122 0 0
rfoot -13.1589 -20.6481 0
rtoes -5.37768 0 0
lowerback 18.1366 2.24064 -1.00316
upperback 0.39601 2.97841 3.21492
thorax -9.02578 1.45197 3.48774
lowerneck 1.99983 -10.3028 -11.2123
upperneck -0.443561 -14.2143 13.8386
head 2.14966 -7.33352 5.73709
lclavicle 2.17366e-14 -2.2749e-14 0
lhumerus -29.1751 -43.1692 97.6304
lradius 103.604 0 0
lwrist 0.796908 0 0
lhand 29.4329 31.7469 0
lfingers 7.12502 0 0
lthumb 48.8636 38.2727 0
rclavicle 2.17366e-14 -2.2749e-14 0
rhumerus 55.3381 18.0361 -24.474
rradius 80.2333 0 0
rwrist -26.8756 0 0
rhand -1.9705 -42.9565 0
rfingers 7.12502 0 0
rthumb 23.7094 -71.2732 0
1736
root -5.15414 15.159 25.2087 937.443 -6.63896 272.54
lfemur -37.661 5.52667 -14.1517
ltibia 64.5609 0 0
lfoot -14.8075 14.2078 0
ltoes -35.3098 0 0
rfemur -38.6579 -13.636 21.3085
rtibia 51.1145 0 0
rfoot -13.3088 -20.7285 0
rtoes -5.64072 0 0
lowerback 18.1106 2.35142 -0.814089
upperback 0.363414 3.16288 3.1629
thorax -9.04472 1.53242 3.27665
lowerneck 1.82001 -10.1107 -11.0741
upperneck -0.245511 -13.945 13.6301
head 2.18509 -7.19055 5.66245
lclavicle 2.1606e-14 -2.17857e-14 0
lhumerus -29.5355 -42.9613 97.8495
lradius 103.934 0 0
lwrist -0.213818 0 0
lhand 30.6241 31.4872 0
lfingers 7.12502 0 0
lthumb 49.8558 37.2727 0
rclavicle 2.1606e-14 -2.17857e-14 0
rhumerus 55.3218 17.9052 -24.6482
rradius 79.4265 0 0
rwrist -26.8051 0 0
rhand -2.58246 -43.3121 0
rfingers 7.12502 0 0
rthumb 23.1282 -71.7481 0
1737
root -5.02896 15.1633 25.2796 940.11 -4.23099 273.696
lfemur -38.0158 5.65005 -14.0056
ltibia 64.5555 0 0
lfoot -14.3938 13.8827 0
ltoes -35.299 0 0
rfemur -38.2215 -13.7778 21.4346
rtibia 51.3166 0 0
rfoot -13.4593 -20.8093 0
rtoes -5.90425 0 0
lowerback 18.0845 2.46214 -0.625047
upperback 0.330782 3.34727 3.11092
thorax -9.06361 1.61283 3.06563
lowerneck 1.63994 -9.91818 -10.9356
upperneck -0.0469786 -13.675 13.4214
head 2.22061 -7.04723 5.58774
lclavicle 2.14759e-14 -2.08242e-14 0
lhumerus -29.8919 -42.752 98.0676
lradius 104.26 0 0
lwrist -1.22364 0 0
lhand 31.8097 31.23 0
lfingers 7.12502 0 0
lthumb 50.8429 36.2662 0
rclavicle 2.14759e-14 -2.08242e-14 0
rhumerus 55.3011 17.7755 -24.826
rradius 78.6232 0 0
rwrist -26.7363 0 0
rhand -3.19123 -43.6657 0
rfingers 7.12502 0 0
rthumb 22.5499 -72.2194 0
1738
root -4.90356 15.1677 25.3506 942.777 -1.82286 274.856
lfemur -38.3702 5.77301 -13.8589
ltibia 64.5479 0 0
lfoot -13.9782 13.5577 0
ltoes -35.286 0 0
rfemur -37.7839 -13.9194 21.5603
rtibia 51.5183 0 0
rfoot -13.6103 -20.8903 0
rtoes -6.16815 0 0
lowerback 18.0581 2.57273 -0.436173
upperback 0.298137 3.53145 3.05901
thorax -9.08243 1.69316 2.85484
lowerneck 1.45974 -9.72523 -10.797
upperneck 0.151929 -13.4045 13.2126
head 2.25619 -6.90366 5.51299
lclavicle 2.13464e-14 -1.98653e-14 0
lhumerus -30.2437 -42.5413 98.2847
lradius 104.582 0 0
lwrist -2.2318 0 0
lhand 32.9886 30.9756 0
lfingers 7.12502 0 0
lthumb 51.8242 35.2538 0
rclavicle 2.13464e-14 -1.98653e-14 0
rhumerus 55.2757 17.6472 -25.0074
rradius 77.8241 0 0
rwrist -26.6694 0 0
rhand -3.79622 -44.0168 0
rfingers 7.12502 0 0
rthumb 21.975 -72.6868 0
1739
root -4.77802 15.1721 25.4215 945.443 0.583862 276.02
lfemur -38.7239 5.89544 -13.7118
ltibia 64.538 0 0
lfoot -13.561 13.2331 0
ltoes -35.2707 0 0
rfemur -37.3453 -14.0606 21.6855
rtibia 51.7195 0 0
rfoot -13.7616 -20.9715 0
rtoes -6.43227 0 0
lowerback 18.0315 2.68311 -0.247598
upperback 0.265497 3.7153 3.00722
thorax -9.10115 1.77334 2.64444
lowerneck 1.27952 -9.53199 -10.6583
upperneck 0.351102 -13.1337 13.004
head 2.29183 -6.7599 5.43826
lclavicle 2.12176e-14 -1.89097e-14 0
lhumerus -30.5905 -42.3291 98.5004
lradius 104.898 0 0
lwrist -3.23755 0 0
lhand 34.1596 30.7243 0
lfingers 7.12502 0 0
lthumb 52.7985 34.2355 0
rclavicle 2.12176e-14 -1.89097e-14 0
rhumerus 55.2454 17.5203 -25.1924
rradius 77.0301 0 0
rwrist -26.6043 0 0
rhand -4.3968 -44.3652 0
rfingers 7.12502 0 0
rthumb 21.4043 -73.1496 0
1740
root -4.65241 15.1764 25.4923 948.104 2.98763 277.186
lfemur -39.0765 6.01726 -13.5642
ltibia 64.5256 0 0
lfoot -13.1424 12.9092 0
ltoes -35.2529 0 0
rfemur -36.906 -14.2013 21.8103
rtibia 51.9202 0 0
rfoot -13.9133 -21.0529 0
rtoes -6.69647 0 0
lowerback 18.0046 2.79319 -0.0594553
upperback 0.232886 3.89867 2.95557
thorax -9.11978 1.85333 2.43456
lowerneck 1.0994 -9.33858 -10.5196
upperneck 0.550432 -12.8626 12.7955
head 2.3275 -6.61604 5.36358
lclavicle 2.10896e-14 -1.79581e-14 0
lhumerus -30.9316 -42.1157 98.7145
lradius 105.21 0 0
lwrist -4.24014 0 0
lhand 35.3215 30.4764 0
lfingers 7.12502 0 0
lthumb 53.765 33.2119 0
rclavicle 2.10896e-14 -1.79581e-14 0
rhumerus 55.2098 17.395 -25.3813
rradius 76.242 0 0
rwrist -26.5414 0 0
rhand -4.99236 -44.7103 0
rfingers 7.12502 0 0
rthumb 20.8381 -73.6073 0
1741
root -4.52679 15.1807 25.563 950.761 5.38688 278.353
lfemur -39.4279 6.13836 -13.4162
ltibia 64.5107 0 0
lfoot -12.7224 12.5861 0
ltoes -35.2325 0 0
rfemur -36.4662 -14.3414 21.9344
rtibia 52.12 0 0
rfoot -14.0652 -21.1344 0
rtoes -6.96061 0 0
lowerback 17.9775 2.90289 0.128122
upperback 0.200324 4.08143 2.90412
thorax -9.13828 1.93305 2.22537
lowerneck 0.919466 -9.1451 -10.381
upperneck 0.749812 -12.5915 12.5874
head 2.36319 -6.47214 5.28901
lclavicle 2.09625e-14 -1.70112e-14 0
lhumerus -31.2667 -41.9011 98.9269
lradius 105.515 0 0
lwrist -5.23881 0 0
lhand 36.4733 30.2323 0
lfingers 7.12502 0 0
lthumb 54.7227 32.1831 0
rclavicle 2.09625e-14 -1.70112e-14 0
rhumerus 55.1689 17.2716 -25.574
rradius 75.4604 0 0
rwrist -26.4808 0 0
rhand -5.58228 -45.052 0
rfingers 7.12502 0 0
rthumb 20.2772 -74.0594 0
1742
root -4.40124 15.1849 25.6336 953.411 7.78005 279.521
lfemur -39.7778 6.25867 -13.268
ltibia 64.4931 0 0
lfoot -12.3013 12.2641 0
ltoes -35.2093 0 0
rfemur -36.0261 -14.4808 22.0578
rtibia 52.3191 0 0
rfoot -14.2173 -21.2159 0
rtoes -7.22455 0 0
lowerback 17.9501 3.01214 0.315001
upperback 0.167831 4.26346 2.85289
thorax -9.15665 2.01246 2.017
lowerneck 0.739846 -8.95165 -10.2426
upperneck 0.949132 -12.3204 12.3797
head 2.39887 -6.32831 5.21459
lclavicle 2.08366e-14 -1.60698e-14 0
lhumerus -31.5952 -41.6852 99.1374
lradius 105.814 0 0
lwrist -6.23282 0 0
lhand 37.6138 29.9922 0
lfingers 7.12502 0 0
lthumb 55.6706 31.1495 0
rclavicle 2.08366e-14 -1.60698e-14 0
rhumerus 55.1224 17.1502 -25.7707
rradius 74.6862 0 0
rwrist -26.4226 0 0
rhand -6.16595 -45.3897 0
rfingers 7.12502 0 0
rthumb 19.7221 -74.5053 0
1743
root -4.27582 15.1892 25.7039 956.054 10.1656 280.69
lfemur -40.1259 6.37808 -13.1195
ltibia 64.4727 0 0
lfoot -11.8792 11.9434 0
ltoes -35.1834 0 0
rfemur -35.586 -14.6194 22.1803
rtibia 52.5171 0 0
rfoot -14.3694 -21.2975 0
rtoes -7.48815 0 0
lowerback 17.9226 3.12086 0.50105
upperback 0.135429 4.44461 2.80193
thorax -9.17487 2.0915 1.80962
lowerneck 0.560646 -8.75834 -10.1045
upperneck 1.14828 -12.0496 12.1726
head 2.43452 -6.1846 5.14038
lclavicle 2.07119e-14 -1.51346e-14 0
lhumerus -31.9166 -41.4683 99.3457
lradius 106.107 0 0
lwrist -7.22141 0 0
lhand 38.7419 29.7565 0
lfingers 7.12502 0 0
lthumb 56.6078 30.1114 0
rclavicle 2.07119e-14 -1.51346e-14 0
rhumerus 55.0699 17.0309 -25.9714
rradius 73.9202 0 0
rwrist -26.367 0 0
rhand -6.74276 -45.7232 0
rfingers 7.12502 0 0
rthumb 19.1734 -74.9446 0
1744
root -4.1506 15.1933 25.774 958.686 12.5419 281.857
lfemur -40.472 6.4965 -12.9708
ltibia 64.4494 0 0
lfoot -11.4562 11.6242 0
ltoes -35.1544 0 0
rfemur -35.1461 -14.7571 22.302
rtibia 52.714 0 0
rfoot -14.5216 -21.379 0
rtoes -7.75128 0 0
lowerback 17.8948 3.22896 0.686135
upperback 0.10314 4.62476 2.75126
thorax -9.19293 2.1701 1.60338
lowerneck 0.381973 -8.56527 -9.96666
upperneck 1.34716 -11.7792 11.9663
head 2.47014 -6.0411 5.0664
lclavicle 2.05886e-14 -1.42062e-14 0
lhumerus -32.2305 -41.2503 99.5516
lradius 106.392 0 0
lwrist -8.20383 0 0
lhand 39.8565 29.5255 0
lfingers 7.12502 0 0
lthumb 57.5334 29.069 0
rclavicle 2.05886e-14 -1.42062e-14 0
rhumerus 55.0113 16.9139 -26.1762
rradius 73.1631 0 0
rwrist -26.3141 0 0
rhand -7.31209 -46.0521 0
rfingers 7.12502 0 0
rthumb 18.6316 -75.3767 0
1745
root -4.02565 15.1975 25.8438 961.308 14.9075 283.023
lfemur -40.8159 6.61384 -12.8221
ltibia 64.4231 0 0
lfoot -11.0327 11.3068 0
ltoes -35.1224 0 0
rfemur -34.7066 -14.8938 22.4226
rtibia 52.9097 0 0
rfoot -14.6737 -21.4604 0
rtoes -8.01379 0 0
lowerback 17.8669 3.33636 0.870124
upperback 0.0709834 4.80377 2.70094
thorax -9.2108 2.24822 1.39841
lowerneck 0.20394 -8.37254 -9.82928
upperneck 1.54565 -11.5093 11.7608
head 2.50568 -5.8979 4.99272
lclavicle 2.04668e-14 -1.32856e-14 0
lhumerus -32.5362 -41.0313 99.755
lradius 106.669 0 0
lwrist -9.17932 0 0
lhand 40.9563 29.2995 0
lfingers 7.12502 0 0
lthumb 58.4463 28.0228 0
rclavicle 2.04668e-14 -1.32856e-14 0
rhumerus 54.9464 16.7994 -26.3853
rradius 72.4157 0 0
rwrist -26.264 0 0
rhand -7.87332 -46.376 0
rfingers 7.12502 0 0
rthumb 18.0974 -75.801 0
